<svg width="800" height="600" viewBox="0 0 800 600" xmlns="http://www.w3.org/2000/svg">
  <!-- Background -->
  <rect width="800" height="600" fill="#f8fafc"/>
  
  <!-- Title -->
  <text x="400" y="30" text-anchor="middle" font-size="24" font-weight="bold" fill="#1e293b">American Panel Installation Diagram</text>
  
  <!-- Wall Panel System -->
  <rect x="100" y="80" width="600" height="300" fill="#f1f5f9" stroke="#64748b" stroke-width="3"/>
  <text x="400" y="105" text-anchor="middle" font-size="16" font-weight="bold" fill="#1e293b">Walk-In Cooler Assembly</text>
  
  <!-- Individual Panels -->
  <rect x="120" y="120" width="80" height="200" fill="#e2e8f0" stroke="#475569" stroke-width="2"/>
  <text x="160" y="140" text-anchor="middle" font-size="10" font-weight="bold" fill="#334155">PANEL 1</text>
  <text x="160" y="155" text-anchor="middle" font-size="8" fill="#334155">4" Thick</text>
  <text x="160" y="170" text-anchor="middle" font-size="8" fill="#334155">R-25</text>
  
  <rect x="200" y="120" width="80" height="200" fill="#e2e8f0" stroke="#475569" stroke-width="2"/>
  <text x="240" y="140" text-anchor="middle" font-size="10" font-weight="bold" fill="#334155">PANEL 2</text>
  <text x="240" y="155" text-anchor="middle" font-size="8" fill="#334155">Corner</text>
  <text x="240" y="170" text-anchor="middle" font-size="8" fill="#334155">Joint</text>
  
  <rect x="280" y="120" width="80" height="200" fill="#e2e8f0" stroke="#475569" stroke-width="2"/>
  <text x="320" y="140" text-anchor="middle" font-size="10" font-weight="bold" fill="#334155">PANEL 3</text>
  <text x="320" y="155" text-anchor="middle" font-size="8" fill="#334155">Wall</text>
  <text x="320" y="170" text-anchor="middle" font-size="8" fill="#334155">Panel</text>
  
  <!-- Door Panel -->
  <rect x="360" y="120" width="100" height="200" fill="#ddd6fe" stroke="#7c3aed" stroke-width="2"/>
  <text x="410" y="140" text-anchor="middle" font-size="10" font-weight="bold" fill="#5b21b6">DOOR PANEL</text>
  <text x="410" y="155" text-anchor="middle" font-size="8" fill="#5b21b6">Hinged</text>
  <text x="410" y="170" text-anchor="middle" font-size="8" fill="#5b21b6">Gasket Seal</text>
  
  <!-- Door Handle -->
  <rect x="445" y="200" width="10" height="30" fill="#fbbf24" stroke="#f59e0b" stroke-width="1"/>
  <text x="470" y="220" font-size="8" fill="#92400e">Handle</text>
  
  <rect x="480" y="120" width="80" height="200" fill="#e2e8f0" stroke="#475569" stroke-width="2"/>
  <text x="520" y="140" text-anchor="middle" font-size="10" font-weight="bold" fill="#334155">PANEL 4</text>
  <text x="520" y="155" text-anchor="middle" font-size="8" fill="#334155">Wall</text>
  <text x="520" y="170" text-anchor="middle" font-size="8" fill="#334155">Panel</text>
  
  <rect x="560" y="120" width="80" height="200" fill="#e2e8f0" stroke="#475569" stroke-width="2"/>
  <text x="600" y="140" text-anchor="middle" font-size="10" font-weight="bold" fill="#334155">PANEL 5</text>
  <text x="600" y="155" text-anchor="middle" font-size="8" fill="#334155">Corner</text>
  <text x="600" y="170" text-anchor="middle" font-size="8" fill="#334155">Joint</text>
  
  <!-- Ceiling Panels -->
  <rect x="120" y="100" width="520" height="20" fill="#cbd5e1" stroke="#64748b" stroke-width="2"/>
  <text x="380" y="115" text-anchor="middle" font-size="10" font-weight="bold" fill="#1e293b">CEILING PANELS</text>
  
  <!-- Floor -->
  <rect x="120" y="320" width="520" height="20" fill="#94a3b8" stroke="#475569" stroke-width="2"/>
  <text x="380" y="335" text-anchor="middle" font-size="10" font-weight="bold" fill="#1e293b">FLOOR SYSTEM</text>
  
  <!-- Gasket Details -->
  <rect x="50" y="400" width="150" height="120" fill="#fef3c7" stroke="#f59e0b" stroke-width="2"/>
  <text x="125" y="420" text-anchor="middle" font-size="12" font-weight="bold" fill="#92400e">GASKET SYSTEM</text>
  <text x="125" y="440" text-anchor="middle" font-size="10" fill="#92400e">Dual Durometer</text>
  <text x="125" y="455" text-anchor="middle" font-size="10" fill="#92400e">EPDM Rubber</text>
  <text x="125" y="470" text-anchor="middle" font-size="10" fill="#92400e">Compression Seal</text>
  <text x="125" y="485" text-anchor="middle" font-size="10" fill="#92400e">-40°F to 180°F</text>
  <text x="125" y="500" text-anchor="middle" font-size="10" fill="#92400e">UV Resistant</text>
  
  <!-- Hardware Details -->
  <rect x="220" y="400" width="150" height="120" fill="#dcfce7" stroke="#16a34a" stroke-width="2"/>
  <text x="295" y="420" text-anchor="middle" font-size="12" font-weight="bold" fill="#15803d">CAM LOCKS</text>
  <text x="295" y="440" text-anchor="middle" font-size="10" fill="#15803d">Stainless Steel</text>
  <text x="295" y="455" text-anchor="middle" font-size="10" fill="#15803d">Quarter Turn</text>
  <text x="295" y="470" text-anchor="middle" font-size="10" fill="#15803d">Positive Lock</text>
  <text x="295" y="485" text-anchor="middle" font-size="10" fill="#15803d">Weather Sealed</text>
  <text x="295" y="500" text-anchor="middle" font-size="10" fill="#15803d">Easy Access</text>
  
  <!-- Insulation Core -->
  <rect x="390" y="400" width="150" height="120" fill="#dbeafe" stroke="#2563eb" stroke-width="2"/>
  <text x="465" y="420" text-anchor="middle" font-size="12" font-weight="bold" fill="#1d4ed8">INSULATION</text>
  <text x="465" y="440" text-anchor="middle" font-size="10" fill="#1d4ed8">Polyurethane Foam</text>
  <text x="465" y="455" text-anchor="middle" font-size="10" fill="#1d4ed8">CFC-Free</text>
  <text x="465" y="470" text-anchor="middle" font-size="10" fill="#1d4ed8">R-25 Value</text>
  <text x="465" y="485" text-anchor="middle" font-size="10" fill="#1d4ed8">2.5 lb/ft³ Density</text>
  <text x="465" y="500" text-anchor="middle" font-size="10" fill="#1d4ed8">Closed Cell</text>
  
  <!-- Door Hardware -->
  <rect x="560" y="400" width="150" height="120" fill="#f3e8ff" stroke="#9333ea" stroke-width="2"/>
  <text x="635" y="420" text-anchor="middle" font-size="12" font-weight="bold" fill="#7c3aed">DOOR SYSTEM</text>
  <text x="635" y="440" text-anchor="middle" font-size="10" fill="#7c3aed">Heavy Duty Hinges</text>
  <text x="635" y="455" text-anchor="middle" font-size="10" fill="#7c3aed">Self-Closing</text>
  <text x="635" y="470" text-anchor="middle" font-size="10" fill="#7c3aed">Latch Handle</text>
  <text x="635" y="485" text-anchor="middle" font-size="10" fill="#7c3aed">Safety Release</text>
  <text x="635" y="500" text-anchor="middle" font-size="10" fill="#7c3aed">Heated Frame</text>
  
  <!-- Panel Connections -->
  <line x1="200" y1="220" x2="280" y2="220" stroke="#f59e0b" stroke-width="4"/>
  <text x="240" y="215" text-anchor="middle" font-size="8" fill="#92400e">Gasket Joint</text>
  
  <line x1="280" y1="220" x2="360" y2="220" stroke="#f59e0b" stroke-width="4"/>
  <line x1="460" y1="220" x2="480" y2="220" stroke="#f59e0b" stroke-width="4"/>
  <line x1="560" y1="220" x2="640" y2="220" stroke="#f59e0b" stroke-width="4"/>
  
  <!-- Structural Support -->
  <line x1="160" y1="120" x2="160" y2="100" stroke="#64748b" stroke-width="3"/>
  <line x1="240" y1="120" x2="240" y2="100" stroke="#64748b" stroke-width="3"/>
  <line x1="320" y1="120" x2="320" y2="100" stroke="#64748b" stroke-width="3"/>
  <line x1="410" y1="120" x2="410" y2="100" stroke="#64748b" stroke-width="3"/>
  <line x1="520" y1="120" x2="520" y2="100" stroke="#64748b" stroke-width="3"/>
  <line x1="600" y1="120" x2="600" y2="100" stroke="#64748b" stroke-width="3"/>
  
  <line x1="160" y1="320" x2="160" y2="340" stroke="#64748b" stroke-width="3"/>
  <line x1="240" y1="320" x2="240" y2="340" stroke="#64748b" stroke-width="3"/>
  <line x1="320" y1="320" x2="320" y2="340" stroke="#64748b" stroke-width="3"/>
  <line x1="410" y1="320" x2="410" y2="340" stroke="#64748b" stroke-width="3"/>
  <line x1="520" y1="320" x2="520" y2="340" stroke="#64748b" stroke-width="3"/>
  <line x1="600" y1="320" x2="600" y2="340" stroke="#64748b" stroke-width="3"/>
  
  <!-- Dimensions -->
  <line x1="100" y1="60" x2="700" y2="60" stroke="#000" stroke-width="1"/>
  <text x="400" y="55" text-anchor="middle" font-size="10" fill="#000">10' - 0" (3048mm)</text>
  <line x1="100" y1="55" x2="100" y2="65" stroke="#000" stroke-width="1"/>
  <line x1="700" y1="55" x2="700" y2="65" stroke="#000" stroke-width="1"/>
  
  <line x1="80" y1="80" x2="80" y2="380" stroke="#000" stroke-width="1"/>
  <text x="75" y="230" text-anchor="middle" font-size="10" fill="#000" transform="rotate(-90, 75, 230)">8' - 0" (2438mm)</text>
  <line x1="75" y1="80" x2="85" y2="80" stroke="#000" stroke-width="1"/>
  <line x1="75" y1="380" x2="85" y2="380" stroke="#000" stroke-width="1"/>
  
  <!-- Legend -->
  <rect x="50" y="540" width="700" height="50" fill="#f1f5f9" stroke="#64748b" stroke-width="1"/>
  <text x="400" y="560" text-anchor="middle" font-size="14" font-weight="bold" fill="#1e293b">American Panel Specifications</text>
  
  <text x="70" y="580" font-size="10" fill="#1e293b">• Core: CFC-free polyurethane foam, 2.5 lb/ft³ density, R-25 insulation value</text>
  <text x="420" y="580" font-size="10" fill="#1e293b">• Finish: 26 gauge galvanized steel with baked-on polyester coating</text>
</svg>
