<svg width="800" height="600" viewBox="0 0 800 600" xmlns="http://www.w3.org/2000/svg">
  <!-- Background -->
  <rect width="800" height="600" fill="#f8fafc"/>
  
  <!-- Title -->
  <text x="400" y="30" text-anchor="middle" font-size="24" font-weight="bold" fill="#1e293b">Walk-In Cooler & Freezer Wiring Diagram</text>
  
  <!-- Power Input -->
  <rect x="50" y="80" width="120" height="60" fill="#fef3c7" stroke="#f59e0b" stroke-width="2"/>
  <text x="110" y="100" text-anchor="middle" font-size="12" font-weight="bold" fill="#92400e">POWER INPUT</text>
  <text x="110" y="115" text-anchor="middle" font-size="10" fill="#92400e">208-230V</text>
  <text x="110" y="128" text-anchor="middle" font-size="10" fill="#92400e">3Ph 60Hz</text>
  
  <!-- Main Disconnect -->
  <rect x="250" y="80" width="100" height="60" fill="#e5e7eb" stroke="#6b7280" stroke-width="2"/>
  <text x="300" y="100" text-anchor="middle" font-size="12" font-weight="bold" fill="#374151">DISCONNECT</text>
  <text x="300" y="115" text-anchor="middle" font-size="10" fill="#374151">60A Fused</text>
  <text x="300" y="128" text-anchor="middle" font-size="10" fill="#374151">NEMA 4X</text>
  
  <!-- Control Panel -->
  <rect x="450" y="80" width="140" height="80" fill="#ddd6fe" stroke="#7c3aed" stroke-width="2"/>
  <text x="520" y="105" text-anchor="middle" font-size="12" font-weight="bold" fill="#5b21b6">CONTROL PANEL</text>
  <text x="520" y="120" text-anchor="middle" font-size="10" fill="#5b21b6">Digital Controller</text>
  <text x="520" y="135" text-anchor="middle" font-size="10" fill="#5b21b6">Defrost Timer</text>
  <text x="520" y="150" text-anchor="middle" font-size="10" fill="#5b21b6">Safety Controls</text>
  
  <!-- Compressor -->
  <rect x="650" y="80" width="120" height="80" fill="#dcfce7" stroke="#16a34a" stroke-width="2"/>
  <text x="710" y="105" text-anchor="middle" font-size="12" font-weight="bold" fill="#15803d">COMPRESSOR</text>
  <text x="710" y="120" text-anchor="middle" font-size="10" fill="#15803d">3HP Scroll</text>
  <text x="710" y="135" text-anchor="middle" font-size="10" fill="#15803d">R-404A</text>
  <text x="710" y="150" text-anchor="middle" font-size="10" fill="#15803d">3Ph Motor</text>
  
  <!-- Evaporator Fans -->
  <rect x="100" y="220" width="120" height="60" fill="#dbeafe" stroke="#2563eb" stroke-width="2"/>
  <text x="160" y="240" text-anchor="middle" font-size="12" font-weight="bold" fill="#1d4ed8">EVAP FAN 1</text>
  <text x="160" y="255" text-anchor="middle" font-size="10" fill="#1d4ed8">1/4 HP</text>
  <text x="160" y="270" text-anchor="middle" font-size="10" fill="#1d4ed8">Cooler Unit</text>
  
  <rect x="280" y="220" width="120" height="60" fill="#dbeafe" stroke="#2563eb" stroke-width="2"/>
  <text x="340" y="240" text-anchor="middle" font-size="12" font-weight="bold" fill="#1d4ed8">EVAP FAN 2</text>
  <text x="340" y="255" text-anchor="middle" font-size="10" fill="#1d4ed8">1/4 HP</text>
  <text x="340" y="270" text-anchor="middle" font-size="10" fill="#1d4ed8">Freezer Unit</text>
  
  <!-- Condenser Fan -->
  <rect x="460" y="220" width="120" height="60" fill="#f3e8ff" stroke="#9333ea" stroke-width="2"/>
  <text x="520" y="240" text-anchor="middle" font-size="12" font-weight="bold" fill="#7c3aed">CONDENSER FAN</text>
  <text x="520" y="255" text-anchor="middle" font-size="10" fill="#7c3aed">1/3 HP</text>
  <text x="520" y="270" text-anchor="middle" font-size="10" fill="#7c3aed">Outdoor Unit</text>
  
  <!-- Defrost Heaters -->
  <rect x="100" y="330" width="120" height="60" fill="#fecaca" stroke="#dc2626" stroke-width="2"/>
  <text x="160" y="350" text-anchor="middle" font-size="12" font-weight="bold" fill="#b91c1c">DEFROST HTR 1</text>
  <text x="160" y="365" text-anchor="middle" font-size="10" fill="#b91c1c">6kW Element</text>
  <text x="160" y="380" text-anchor="middle" font-size="10" fill="#b91c1c">Cooler Coil</text>
  
  <rect x="280" y="330" width="120" height="60" fill="#fecaca" stroke="#dc2626" stroke-width="2"/>
  <text x="340" y="350" text-anchor="middle" font-size="12" font-weight="bold" fill="#b91c1c">DEFROST HTR 2</text>
  <text x="340" y="365" text-anchor="middle" font-size="10" fill="#b91c1c">9kW Element</text>
  <text x="340" y="380" text-anchor="middle" font-size="10" fill="#b91c1c">Freezer Coil</text>
  
  <!-- Door Heaters -->
  <rect x="460" y="330" width="120" height="60" fill="#fed7aa" stroke="#ea580c" stroke-width="2"/>
  <text x="520" y="350" text-anchor="middle" font-size="12" font-weight="bold" fill="#c2410c">DOOR HEATERS</text>
  <text x="520" y="365" text-anchor="middle" font-size="10" fill="#c2410c">Frame Heaters</text>
  <text x="520" y="380" text-anchor="middle" font-size="10" fill="#c2410c">Anti-Sweat</text>
  
  <!-- Temperature Sensors -->
  <rect x="640" y="220" width="120" height="80" fill="#fef3c7" stroke="#f59e0b" stroke-width="2"/>
  <text x="700" y="245" text-anchor="middle" font-size="12" font-weight="bold" fill="#92400e">TEMP SENSORS</text>
  <text x="700" y="260" text-anchor="middle" font-size="10" fill="#92400e">Cooler RTD</text>
  <text x="700" y="275" text-anchor="middle" font-size="10" fill="#92400e">Freezer RTD</text>
  <text x="700" y="290" text-anchor="middle" font-size="10" fill="#92400e">Defrost Term</text>
  
  <!-- Door Switches & Alarms -->
  <rect x="640" y="330" width="120" height="80" fill="#e5e7eb" stroke="#6b7280" stroke-width="2"/>
  <text x="700" y="355" text-anchor="middle" font-size="12" font-weight="bold" fill="#374151">SAFETY</text>
  <text x="700" y="370" text-anchor="middle" font-size="10" fill="#374151">Door Switches</text>
  <text x="700" y="385" text-anchor="middle" font-size="10" fill="#374151">Temp Alarms</text>
  <text x="700" y="400" text-anchor="middle" font-size="10" fill="#374151">Emergency Stop</text>
  
  <!-- Wiring Connections -->
  <!-- Main Power Distribution -->
  <line x1="170" y1="110" x2="250" y2="110" stroke="#000" stroke-width="4"/>
  <text x="210" y="105" text-anchor="middle" font-size="8" fill="#000">L1-L2-L3</text>
  
  <line x1="350" y1="110" x2="450" y2="110" stroke="#000" stroke-width="3"/>
  <line x1="590" y1="120" x2="650" y2="120" stroke="#000" stroke-width="3"/>
  
  <!-- Control Wiring -->
  <line x1="520" y1="160" x2="520" y2="190" stroke="#7c3aed" stroke-width="2"/>
  <line x1="160" y1="190" x2="700" y2="190" stroke="#7c3aed" stroke-width="2"/>
  
  <!-- Fan Control Lines -->
  <line x1="160" y1="190" x2="160" y2="220" stroke="#2563eb" stroke-width="2"/>
  <line x1="340" y1="190" x2="340" y2="220" stroke="#2563eb" stroke-width="2"/>
  <line x1="520" y1="190" x2="520" y2="220" stroke="#2563eb" stroke-width="2"/>
  <text x="340" y="185" text-anchor="middle" font-size="8" fill="#2563eb">Fan Control</text>
  
  <!-- Defrost Control -->
  <line x1="520" y1="160" x2="520" y2="300" stroke="#dc2626" stroke-width="2"/>
  <line x1="160" y1="300" x2="520" y2="300" stroke="#dc2626" stroke-width="2"/>
  <line x1="160" y1="300" x2="160" y2="330" stroke="#dc2626" stroke-width="2"/>
  <line x1="340" y1="300" x2="340" y2="330" stroke="#dc2626" stroke-width="2"/>
  <line x1="520" y1="300" x2="520" y2="330" stroke="#dc2626" stroke-width="2"/>
  <text x="340" y="295" text-anchor="middle" font-size="8" fill="#dc2626">Defrost Control</text>
  
  <!-- Temperature Sensor Wiring -->
  <line x1="700" y1="300" x2="700" y2="310" stroke="#f59e0b" stroke-width="2"/>
  <line x1="590" y1="310" x2="700" y2="310" stroke="#f59e0b" stroke-width="2"/>
  <line x1="590" y1="310" x2="590" y2="160" stroke="#f59e0b" stroke-width="2"/>
  <text x="645" y="305" text-anchor="middle" font-size="8" fill="#f59e0b">Sensor Signals</text>
  
  <!-- Safety System Wiring -->
  <line x1="700" y1="330" x2="700" y2="320" stroke="#6b7280" stroke-width="2"/>
  <line x1="590" y1="320" x2="700" y2="320" stroke="#6b7280" stroke-width="2"/>
  <line x1="590" y1="320" x2="590" y2="160" stroke="#6b7280" stroke-width="2"/>
  <text x="645" y="315" text-anchor="middle" font-size="8" fill="#6b7280">Safety Signals</text>
  
  <!-- Legend -->
  <rect x="50" y="450" width="700" height="130" fill="#f1f5f9" stroke="#64748b" stroke-width="1"/>
  <text x="400" y="470" text-anchor="middle" font-size="14" font-weight="bold" fill="#1e293b">Walk-In System Specifications</text>
  
  <text x="70" y="490" font-size="10" fill="#1e293b">• Power: 208-230V AC, 3Ph, 60Hz, 45A total</text>
  <text x="70" y="505" font-size="10" fill="#1e293b">• Cooler: 10' x 12' x 8', 35-38°F operating range</text>
  <text x="70" y="520" font-size="10" fill="#1e293b">• Freezer: 8' x 10' x 8', -10 to 0°F operating range</text>
  <text x="70" y="535" font-size="10" fill="#1e293b">• Refrigerant: R-404A, low-temperature application</text>
  <text x="70" y="550" font-size="10" fill="#1e293b">• Defrost: Electric defrost with hot gas assist</text>
  <text x="70" y="565" font-size="10" fill="#1e293b">• Insulation: 4" polyurethane foam, R-25 value</text>
  
  <text x="420" y="490" font-size="10" fill="#1e293b">• Compressor: 3HP hermetic scroll, 3-phase</text>
  <text x="420" y="505" font-size="10" fill="#1e293b">• Evaporator Fans: 1/4 HP each, variable speed</text>
  <text x="420" y="520" font-size="10" fill="#1e293b">• Defrost Schedule: 4x daily, 45 min maximum</text>
  <text x="420" y="535" font-size="10" fill="#1e293b">• Door Configuration: Heavy-duty with gaskets</text>
  <text x="420" y="550" font-size="10" fill="#1e293b">• Safety: High/low pressure, temperature alarms</text>
  <text x="420" y="565" font-size="10" fill="#1e293b">• Control: Digital with data logging capability</text>
</svg>
