<svg width="64" height="64" viewBox="0 0 64 64" fill="none" xmlns="http://www.w3.org/2000/svg">
  <!-- Background Circle -->
  <circle cx="32" cy="32" r="30" fill="url(#gradient1)" stroke="url(#gradient2)" stroke-width="2"/>
  
  <!-- Kitchen Icon -->
  <g transform="translate(16, 16)">
    <!-- Stove/Equipment Base -->
    <rect x="4" y="20" width="24" height="8" rx="2" fill="url(#gradient3)"/>
    
    <!-- Burners -->
    <circle cx="10" cy="24" r="3" fill="url(#gradient4)"/>
    <circle cx="22" cy="24" r="3" fill="url(#gradient4)"/>
    
    <!-- Equipment Stack -->
    <rect x="6" y="12" width="20" height="8" rx="1" fill="url(#gradient5)"/>
    <rect x="8" y="8" width="16" height="4" rx="1" fill="url(#gradient6)"/>
    
    <!-- Steam/Heat Lines -->
    <path d="M12 4 Q14 2 16 4 Q18 2 20 4" stroke="url(#gradient7)" stroke-width="1.5" fill="none"/>
    <path d="M10 6 Q12 4 14 6 Q16 4 18 6" stroke="url(#gradient7)" stroke-width="1" fill="none"/>
  </g>
  
  <!-- Text -->
  <text x="32" y="56" text-anchor="middle" font-family="Arial, sans-serif" font-size="8" font-weight="bold" fill="url(#gradient8)">LTC</text>
  
  <!-- Gradients -->
  <defs>
    <linearGradient id="gradient1" x1="0%" y1="0%" x2="100%" y2="100%">
      <stop offset="0%" style="stop-color:#1e40af;stop-opacity:1" />
      <stop offset="100%" style="stop-color:#7c3aed;stop-opacity:1" />
    </linearGradient>
    <linearGradient id="gradient2" x1="0%" y1="0%" x2="100%" y2="100%">
      <stop offset="0%" style="stop-color:#3b82f6;stop-opacity:1" />
      <stop offset="100%" style="stop-color:#a855f7;stop-opacity:1" />
    </linearGradient>
    <linearGradient id="gradient3" x1="0%" y1="0%" x2="100%" y2="100%">
      <stop offset="0%" style="stop-color:#374151;stop-opacity:1" />
      <stop offset="100%" style="stop-color:#1f2937;stop-opacity:1" />
    </linearGradient>
    <linearGradient id="gradient4" x1="0%" y1="0%" x2="100%" y2="100%">
      <stop offset="0%" style="stop-color:#f59e0b;stop-opacity:1" />
      <stop offset="100%" style="stop-color:#dc2626;stop-opacity:1" />
    </linearGradient>
    <linearGradient id="gradient5" x1="0%" y1="0%" x2="100%" y2="100%">
      <stop offset="0%" style="stop-color:#6b7280;stop-opacity:1" />
      <stop offset="100%" style="stop-color:#4b5563;stop-opacity:1" />
    </linearGradient>
    <linearGradient id="gradient6" x1="0%" y1="0%" x2="100%" y2="100%">
      <stop offset="0%" style="stop-color:#9ca3af;stop-opacity:1" />
      <stop offset="100%" style="stop-color:#6b7280;stop-opacity:1" />
    </linearGradient>
    <linearGradient id="gradient7" x1="0%" y1="0%" x2="100%" y2="100%">
      <stop offset="0%" style="stop-color:#fbbf24;stop-opacity:0.8" />
      <stop offset="100%" style="stop-color:#f59e0b;stop-opacity:0.6" />
    </linearGradient>
    <linearGradient id="gradient8" x1="0%" y1="0%" x2="100%" y2="100%">
      <stop offset="0%" style="stop-color:#ffffff;stop-opacity:1" />
      <stop offset="100%" style="stop-color:#e5e7eb;stop-opacity:1" />
    </linearGradient>
  </defs>
</svg>
